<svg xmlns="http://www.w3.org/2000/svg" viewBox="0 0 256 256">
  <defs>
    <linearGradient id="g" x1="0" y1="0" x2="1" y2="1">
      <stop offset="0%" stop-color="#00f5ff"/>
      <stop offset="100%" stop-color="#14b8a6"/>
    </linearGradient>
    <filter id="shadow" x="-50%" y="-50%" width="200%" height="200%">
      <feDropShadow dx="0" dy="6" stdDeviation="8" flood-color="#00f5ff" flood-opacity="0.35" />
    </filter>
  </defs>
  <rect x="16" y="16" width="224" height="224" rx="48" fill="#0b1020"/>
  <g filter="url(#shadow)">
    <path d="M128 40c-48 0-88 40-88 88s40 88 88 88 88-40 88-88-40-88-88-88zm0 20c37.6 0 68 30.4 68 68s-30.4 68-68 68-68-30.4-68-68 30.4-68 68-68z" fill="url(#g)"/>
    <path d="M128 76c-28.7 0-52 23.3-52 52s23.3 52 52 52 52-23.3 52-52-23.3-52-52-52zm0 18c18.9 0 34 15.1 34 34s-15.1 34-34 34-34-15.1-34-34 15.1-34 34-34z" fill="url(#g)" opacity="0.9"/>
    <circle cx="128" cy="128" r="6" fill="#e2fff9"/>
    <g stroke="url(#g)" stroke-width="2" opacity="0.9">
      <line x1="128" y1="44" x2="128" y2="76"/>
      <line x1="128" y1="212" x2="128" y2="180"/>
      <line x1="44" y1="128" x2="76" y2="128"/>
      <line x1="212" y1="128" x2="180" y2="128"/>
    </g>
    <path d="M72 152c16 16 56 16 72 0s40-16 56 0" fill="none" stroke="url(#g)" stroke-width="4" stroke-linecap="round" opacity="0.8"/>
  </g>
</svg>
